<svg xmlns="http://www.w3.org/2000/svg" width="604" height="600" viewBox="0 0 453 450"><path style="stroke:none;fill-rule:nonzero;fill:#000;fill-opacity:1" d="M197 186c6 22 40 27 56 16l21 16c-65-3-101 36-119 106-17-72-4-123 42-138M227 0A226 226 0 0 0 0 227c0 110 83 203 187 223-12-43-11-100-1-135 10-43 34-75 71-82 63-10 94 15 81 43 16-11 26-39 8-80-4-9-20-21 1-38-76-110-182-76-273 5 60-37 146-46 201 9-3 7-10 12-17 16 1-5 0-12-3-18-4 27-59 18-42-20-84 0-148 35-184 101A200 200 0 0 1 227 27a200 200 0 0 1 137 344c-57-19-92-66-62-132a96 96 0 0 0-37 74l1 15v1c1 15 5 29 10 42 9 23 24 43 41 63A227 227 0 0 0 227 0"/><path style="stroke:none;fill-rule:nonzero;fill:#000;fill-opacity:1" d="M230 159c3 0 7 2 10 5-2 11-14 5-10-5m23 4c-8-8-18-13-32-16-15 26 23 44 32 16"/></svg>